<svg preserveAspectRatio="none" width="100%" height="100%" overflow="visible" style="display: block;" viewBox="0 0 166 32" fill="none" xmlns="http://www.w3.org/2000/svg">
<g id="Frame 1000004880">
<path id="Vector" fill-rule="evenodd" clip-rule="evenodd" d="M27.1488 2.90403C24.8033 1.13353 21.5973 0.227866 17.6327 0.039574C17.1061 0.0146197 16.5684 0 16.0151 0C15.3542 0 14.7132 0.0171403 14.0905 0.0509169C10.5249 0.243746 7.59201 0.998929 5.34154 2.41275C2.02981 4.78946 0.367831 8.8424 0.0557243 14.2149C0.0192411 14.844 0 15.4901 0 16.1548C0 16.7123 0.0147432 17.2545 0.0404813 17.7851C0.285369 22.8561 1.71471 26.6941 4.57439 29.096C6.91982 30.8665 10.1258 31.7724 14.0905 31.9604C14.6173 31.9854 15.1548 32 15.708 32C16.369 32 17.0099 31.9829 17.6327 31.9491C21.1983 31.7563 24.1311 31.0011 26.3819 29.5873C29.6933 27.2105 31.3556 23.1576 31.6674 17.7851C31.7039 17.156 31.7234 16.5099 31.7234 15.8452C31.7234 15.2877 31.7084 14.7455 31.6827 14.2149C31.4378 9.14387 30.0087 5.30594 27.1488 2.90403ZM10.5741 16C10.5741 17.9742 11.6369 19.6975 13.2172 20.6196L10.5731 25.2399C7.41284 23.3953 5.28682 19.9481 5.28682 16C5.28682 10.1083 10.0217 5.33241 15.8615 5.33241C17.7876 5.33241 19.5937 5.85191 21.1493 6.76035L18.505 11.3804C17.7273 10.926 16.8242 10.6663 15.8615 10.6663C12.9413 10.6663 10.5741 13.0541 10.5741 16ZM21.1485 25.2381C19.8843 25.9749 18.2675 25.5381 17.5374 24.2621C16.8125 22.9958 17.2345 21.3793 18.478 20.6357C18.4945 20.6266 18.511 20.6171 18.5267 20.607C19.7882 19.8873 21.3909 20.3274 22.1161 21.5953C22.8465 22.871 22.4134 24.5021 21.1485 25.2381Z" fill="var(--fill-0, #F4F3F1)"/>
<g id="cleevio group">
<path id="Vector_2" d="M160.93 11.0082C162.293 11.0082 163.398 11.4687 164.245 12.3713C165.111 13.2738 165.535 14.4711 165.535 15.9632C165.535 17.4552 165.111 18.6525 164.245 19.5551C163.398 20.4577 162.293 20.9181 160.93 20.9181C159.769 20.9181 158.867 20.5866 158.259 19.905V25.4126H155.569V11.1924H158.111V12.187C158.701 11.395 159.64 11.0082 160.93 11.0082ZM160.506 13.3107C159.161 13.3107 158.259 14.2501 158.259 15.7421V16.1842C158.259 17.6762 159.161 18.6156 160.506 18.6156C161.887 18.6156 162.808 17.6394 162.808 15.9632C162.808 14.2869 161.887 13.3107 160.506 13.3107Z" fill="var(--fill-0, #F4F3F1)"/>
<path id="Vector_3" d="M152.925 11.1924V20.7155H150.383V19.7577C149.904 20.5313 149.075 20.9181 147.915 20.9181C145.723 20.9181 144.396 19.5182 144.396 17.1789V11.1924H147.086V16.6079C147.086 17.8052 147.602 18.413 148.615 18.413C149.628 18.413 150.236 17.6762 150.236 16.571V11.1924H152.925Z" fill="var(--fill-0, #F4F3F1)"/>
<path id="Vector_4" d="M142.357 15.9632C142.357 17.4368 141.878 18.6341 140.921 19.5551C139.981 20.4577 138.765 20.9181 137.292 20.9181C135.818 20.9181 134.603 20.4577 133.645 19.5551C132.705 18.6341 132.226 17.4368 132.226 15.9632C132.226 14.4711 132.705 13.2738 133.645 12.3713C134.603 11.4687 135.818 11.0082 137.292 11.0082C138.765 11.0082 139.981 11.4687 140.921 12.3713C141.878 13.2738 142.357 14.4711 142.357 15.9632ZM138.987 14.0291C138.563 13.5501 137.992 13.3107 137.292 13.3107C136.592 13.3107 136.021 13.5501 135.597 14.0291C135.174 14.4896 134.953 15.1343 134.953 15.9632C134.953 16.7921 135.174 17.4368 135.597 17.8973C136.021 18.3578 136.592 18.5972 137.292 18.5972C137.992 18.5972 138.563 18.3578 138.987 17.8973C139.41 17.4368 139.631 16.7921 139.631 15.9632C139.631 15.1343 139.41 14.4896 138.987 14.0291Z" fill="var(--fill-0, #F4F3F1)"/>
<path id="Vector_5" d="M131.03 11.1003V13.6975C129.482 13.6975 128.506 14.5632 128.506 15.8895V20.7155H125.817V11.1924H128.414V12.2792C128.911 11.4871 129.795 11.1003 131.03 11.1003Z" fill="var(--fill-0, #F4F3F1)"/>
<path id="Vector_6" d="M117.943 11.0082C119.251 11.0082 120.19 11.395 120.78 12.187V11.1924H123.303V21.0655C123.303 22.447 122.861 23.5338 121.996 24.3627C121.13 25.1916 119.951 25.5968 118.496 25.5968C115.622 25.5968 113.965 24.1969 113.596 21.9313L116.267 21.8392C116.396 22.7786 117.206 23.3128 118.404 23.3128C119.785 23.3128 120.633 22.5944 120.633 21.2681V19.905C120.006 20.5866 119.104 20.9181 117.943 20.9181C116.599 20.9181 115.493 20.4577 114.628 19.5551C113.78 18.6525 113.357 17.4552 113.357 15.9632C113.357 14.4711 113.78 13.2738 114.628 12.3713C115.493 11.4687 116.599 11.0082 117.943 11.0082ZM118.385 13.3107C117.004 13.3107 116.083 14.2869 116.083 15.9632C116.083 17.6394 117.004 18.6156 118.385 18.6156C119.73 18.6156 120.633 17.6762 120.633 16.1842V15.7421C120.633 14.2501 119.73 13.3107 118.385 13.3107Z" fill="var(--fill-0, #F4F3F1)"/>
<path id="Vector_7" d="M107.586 15.9632C107.586 17.4368 107.107 18.6341 106.149 19.5551C105.21 20.4577 103.994 20.9181 102.52 20.9181C101.047 20.9181 99.8311 20.4577 98.8733 19.5551C97.9339 18.6341 97.455 17.4368 97.455 15.9632C97.455 14.4711 97.9339 13.2738 98.8733 12.3713C99.8311 11.4687 101.047 11.0082 102.52 11.0082C103.994 11.0082 105.21 11.4687 106.149 12.3713C107.107 13.2738 107.586 14.4711 107.586 15.9632ZM104.215 14.0291C103.791 13.5501 103.22 13.3107 102.52 13.3107C101.821 13.3107 101.249 13.5501 100.826 14.0291C100.402 14.4896 100.181 15.1343 100.181 15.9632C100.181 16.7921 100.402 17.4368 100.826 17.8973C101.249 18.3578 101.821 18.5972 102.52 18.5972C103.22 18.5972 103.791 18.3578 104.215 17.8973C104.639 17.4368 104.86 16.7921 104.86 15.9632C104.86 15.1343 104.639 14.4896 104.215 14.0291Z" fill="var(--fill-0, #F4F3F1)"/>
<path id="Vector_8" d="M93.9549 6.45842C94.8574 6.45842 95.5758 7.1768 95.5758 8.07938C95.5758 8.52146 95.41 8.90828 95.0969 9.22142C94.489 9.82928 93.4207 9.82928 92.8128 9.22142C91.7813 8.30042 92.6102 6.38474 93.9549 6.45842ZM95.2995 11.1924V20.7155H92.6102V11.1924H95.2995Z" fill="var(--fill-0, #F4F3F1)"/>
<path id="Vector_9" d="M91.1874 11.1924L87.0797 20.7155H84.9246L80.8169 11.1924H83.7825L86.0114 16.7921L88.2218 11.1924H91.1874Z" fill="var(--fill-0, #F4F3F1)"/>
<path id="Vector_10" d="M80.3884 15.7421V16.8105H73.8492C73.9045 18.0078 74.6413 18.7446 75.8386 18.7446C76.7964 18.7446 77.3859 18.3946 77.5885 17.6946L80.2963 17.8236C80.1305 18.7262 79.6331 19.4814 78.8042 20.0524C77.9938 20.6234 77.0359 20.9181 75.9123 20.9181C74.4387 20.9181 73.2414 20.4761 72.3388 19.5735C71.4362 18.6709 70.9941 17.4736 70.9941 15.9632C70.9941 14.4343 71.4362 13.237 72.3388 12.3528C73.2414 11.4502 74.4018 11.0082 75.8386 11.0082C77.2201 11.0082 78.3253 11.4318 79.1542 12.2792C79.9831 13.1081 80.3884 14.2685 80.3884 15.7421ZM75.8202 13.1081C74.6597 13.1081 73.9229 13.8264 73.8492 15.0237H77.6806C77.6254 13.8264 76.9991 13.1081 75.8202 13.1081Z" fill="var(--fill-0, #F4F3F1)"/>
<path id="Vector_11" d="M69.3795 15.7421V16.8105H62.8404C62.8956 18.0078 63.6324 18.7446 64.8298 18.7446C65.7876 18.7446 66.377 18.3946 66.5797 17.6946L69.2874 17.8236C69.1216 18.7262 68.6243 19.4814 67.7954 20.0524C66.9849 20.6234 66.0271 20.9181 64.9034 20.9181C63.4298 20.9181 62.2325 20.4761 61.3299 19.5735C60.4274 18.6709 59.9853 17.4736 59.9853 15.9632C59.9853 14.4343 60.4274 13.237 61.3299 12.3528C62.2325 11.4502 63.393 11.0082 64.8298 11.0082C66.2113 11.0082 67.3165 11.4318 68.1454 12.2792C68.9743 13.1081 69.3795 14.2685 69.3795 15.7421ZM64.8113 13.1081C63.6509 13.1081 62.9141 13.8264 62.8404 15.0237H66.6718C66.6165 13.8264 65.9902 13.1081 64.8113 13.1081Z" fill="var(--fill-0, #F4F3F1)"/>
<path id="Vector_12" d="M57.8298 6.40316V20.7155H55.1405V6.40316H57.8298Z" fill="var(--fill-0, #F4F3F1)"/>
<path id="Vector_13" d="M48.6051 11.0082C49.784 11.0082 50.7787 11.3397 51.6076 12.0028C52.4365 12.666 52.9523 13.5686 53.1181 14.6922L50.484 14.9132C50.3551 13.937 49.6367 13.3107 48.6051 13.3107C47.3342 13.3107 46.45 14.2869 46.45 15.9632C46.45 17.6025 47.3342 18.5972 48.6051 18.5972C49.6551 18.5972 50.3551 18.0078 50.5024 17.0499L53.1181 17.2894C52.9339 18.413 52.4365 19.2972 51.6076 19.9419C50.7787 20.5866 49.784 20.9181 48.6051 20.9181C47.1684 20.9181 45.9895 20.4761 45.0869 19.5919C44.1843 18.6893 43.7238 17.492 43.7238 15.9632C43.7238 14.4343 44.1843 13.2186 45.0869 12.3344C45.9895 11.4502 47.1684 11.0082 48.6051 11.0082Z" fill="var(--fill-0, #F4F3F1)"/>
</g>
</g>
</svg>
