<svg width="115" height="36" viewBox="0 0 115 36" fill="none" xmlns="http://www.w3.org/2000/svg">
<g clip-path="url(#clip0_2387_36)">
<path d="M28.8363 9.60527L18.2168 3.20744C17.5167 2.78502 16.6466 2.78502 15.9478 3.20744L5.32696 9.60527C4.67161 10.0011 4.26367 10.7229 4.26367 11.488V24.4032C4.26367 25.1696 4.67161 25.8901 5.32696 26.286L15.9478 32.6838C16.2978 32.895 16.69 33 17.0823 33C17.4745 33 17.8667 32.895 18.2168 32.6838L28.8363 26.286C29.4929 25.8901 29.8996 25.1696 29.8996 24.4032V11.488C29.8996 10.7229 29.4929 10.0011 28.8363 9.60527ZM17.3224 27.2684L15.2659 25.2613V21.2314L17.3224 23.142V27.2684ZM28.6324 24.4032C28.6324 24.7278 28.4598 25.0332 28.1822 25.1997L23.1603 28.2255L19.9221 25.2178V26.9473L22.0306 28.9062L21.0868 29.4746L19.9221 28.4584V30.177L18.5897 30.9796V23.1202L20.9625 20.6412H19.2076L17.9307 21.9761L15.0993 19.3462L14.6829 19.7771H14.6817L13.9986 20.4831V25.7948L17.3224 29.0401V31.7002C17.0823 31.7653 16.8216 31.7315 16.6019 31.5988L12.0688 28.8675L13.517 27.4422L12.6276 26.5382L10.9475 28.1917L9.66218 27.418L12.5226 24.6023V19.8338L14.0553 18.3023L13.1176 17.4478L11.2553 19.3088V24.0713L8.54096 26.7422L5.9811 25.1997C5.70351 25.0332 5.53093 24.7278 5.53093 24.4032V11.488C5.53093 11.1646 5.70351 10.858 5.9811 10.6915L16.6019 4.29245C16.7492 4.20314 16.9157 4.15848 17.0823 4.15848C17.2488 4.15848 17.4142 4.20314 17.5626 4.29245L28.1822 10.6915C28.4598 10.858 28.6324 11.1646 28.6324 11.488V24.4032Z" fill="white"/>
<path d="M14.9521 17.4057L16.2845 16.0733L15.3877 15.1777L14.0143 16.5512L14.9521 17.4057Z" fill="white"/>
<path d="M17.4564 12.6479H15.4324V13.9152H17.4564V12.6479Z" fill="white"/>
<path d="M13.8587 12.3848L8.67981 17.5648V20.7788L9.94706 21.9556V18.0898L13.8587 14.177V12.3848Z" fill="white"/>
<path d="M20.293 15.5251C20.6828 15.1353 20.6828 14.5034 20.293 14.1136C19.9032 13.7238 19.2712 13.7238 18.8814 14.1136C18.4916 14.5034 18.4916 15.1353 18.8814 15.5251C19.2712 15.9149 19.9032 15.9149 20.293 15.5251Z" fill="white"/>
<path d="M25.8999 14.5174H23.7166L20.2999 11.2612H21.4102L23.5054 13.2574H25.3436L21.9171 9.9939H12.0989L9.51855 12.4246V14.4136L12.6951 11.2612H18.4618L22.914 15.5034V15.8921L20.8623 17.9897H18.399L17.4854 17.1545L16.165 18.5992L17.9199 20.2031L18.7852 19.2569H24.7148L26.0991 20.179L26.2886 20.3057L27.0899 20.8416H27.3663V16.6186L25.8999 14.5174ZM25.0985 17.9897H22.634L24.1813 16.4098V15.7846H25.2386L26.0991 17.0169V18.6559L25.0985 17.9897Z" fill="white"/>
<path d="M6.797 25.4581L9.25306 23.0419L8.32374 22.1777L6.797 23.6803V25.4581Z" fill="white"/>
</g>
<mask id="path-8-outside-1_2387_36" maskUnits="userSpaceOnUse" x="34.0625" y="11.4102" width="78" height="13" fill="white">
<rect fill="white" x="34.0625" y="11.4102" width="78" height="13"/>
<path d="M35.8925 20.0502C35.9375 21.8802 37.2275 22.7352 39.0875 22.7352C40.8575 22.7352 42.0425 21.9102 42.0425 20.4552C42.0425 18.9102 40.7075 18.6102 40.1825 18.4902L38.1725 18.0252C37.2125 17.8002 35.2025 17.3502 35.2025 15.2352C35.2025 13.4052 36.7025 12.3252 38.8925 12.3252C41.1575 12.3252 42.6875 13.4502 42.7325 15.4602H41.7425C41.6525 13.9452 40.5875 13.1502 38.9075 13.1502C37.2125 13.1502 36.2225 13.9602 36.2225 15.1602C36.2225 16.5402 37.5575 16.8852 38.3225 17.0502L40.4675 17.5302C42.3425 17.9502 43.0775 19.0152 43.0775 20.3802C43.0775 22.4202 41.4425 23.5602 39.0425 23.5602C36.1475 23.5602 34.8725 21.9102 34.8875 20.0502H35.8925ZM51.8067 12.4752H52.7817V15.8352L49.2267 20.0352V23.4102H48.2517V20.0352L44.6967 15.8352V12.4752H45.6717V15.5652L48.6717 19.1652H48.8067L51.8067 15.5652V12.4752ZM55.0273 23.4102V12.4752H56.3173L62.6323 22.3002H62.6923L62.6023 18.9252V12.4752H63.5773V23.4102H62.2723L55.9873 13.5552H55.9273L56.0023 16.8102V23.4102H55.0273ZM66.4279 23.4102V12.4752H67.4029V17.3502H74.1529V12.4752H75.1279V23.4102H74.1529V18.2502H67.4029V23.4102H66.4279ZM82.46 12.4752L85.985 16.6902V23.4102H85.01V20.6802H78.86V23.4102H77.885V16.6902L81.41 12.4752H82.46ZM78.86 19.7652H85.01V16.9602L81.995 13.3002H81.875L78.86 16.9602V19.7652ZM88.7457 19.3602V12.4752H89.7207V19.2252L91.5207 22.6002H91.6707L93.6657 19.0752V15.7302H94.5807V19.0752L96.7107 22.6002H96.8607L98.6907 19.2252V12.4752H99.6657V19.3602L97.4307 23.4102H96.2157L94.1307 19.9902L92.1657 23.4102H90.9507L88.7457 19.3602ZM109.303 23.4102L105.673 18.0102L103.348 20.8002V23.4102H102.373V12.4752H103.348V19.4952L109.168 12.4752H110.293L106.303 17.2452L110.443 23.4102H109.303Z"/>
</mask>
<path d="M35.8925 20.0502C35.9375 21.8802 37.2275 22.7352 39.0875 22.7352C40.8575 22.7352 42.0425 21.9102 42.0425 20.4552C42.0425 18.9102 40.7075 18.6102 40.1825 18.4902L38.1725 18.0252C37.2125 17.8002 35.2025 17.3502 35.2025 15.2352C35.2025 13.4052 36.7025 12.3252 38.8925 12.3252C41.1575 12.3252 42.6875 13.4502 42.7325 15.4602H41.7425C41.6525 13.9452 40.5875 13.1502 38.9075 13.1502C37.2125 13.1502 36.2225 13.9602 36.2225 15.1602C36.2225 16.5402 37.5575 16.8852 38.3225 17.0502L40.4675 17.5302C42.3425 17.9502 43.0775 19.0152 43.0775 20.3802C43.0775 22.4202 41.4425 23.5602 39.0425 23.5602C36.1475 23.5602 34.8725 21.9102 34.8875 20.0502H35.8925ZM51.8067 12.4752H52.7817V15.8352L49.2267 20.0352V23.4102H48.2517V20.0352L44.6967 15.8352V12.4752H45.6717V15.5652L48.6717 19.1652H48.8067L51.8067 15.5652V12.4752ZM55.0273 23.4102V12.4752H56.3173L62.6323 22.3002H62.6923L62.6023 18.9252V12.4752H63.5773V23.4102H62.2723L55.9873 13.5552H55.9273L56.0023 16.8102V23.4102H55.0273ZM66.4279 23.4102V12.4752H67.4029V17.3502H74.1529V12.4752H75.1279V23.4102H74.1529V18.2502H67.4029V23.4102H66.4279ZM82.46 12.4752L85.985 16.6902V23.4102H85.01V20.6802H78.86V23.4102H77.885V16.6902L81.41 12.4752H82.46ZM78.86 19.7652H85.01V16.9602L81.995 13.3002H81.875L78.86 16.9602V19.7652ZM88.7457 19.3602V12.4752H89.7207V19.2252L91.5207 22.6002H91.6707L93.6657 19.0752V15.7302H94.5807V19.0752L96.7107 22.6002H96.8607L98.6907 19.2252V12.4752H99.6657V19.3602L97.4307 23.4102H96.2157L94.1307 19.9902L92.1657 23.4102H90.9507L88.7457 19.3602ZM109.303 23.4102L105.673 18.0102L103.348 20.8002V23.4102H102.373V12.4752H103.348V19.4952L109.168 12.4752H110.293L106.303 17.2452L110.443 23.4102H109.303Z" fill="white"/>
<path d="M35.8925 20.0502L36.2924 20.0403L36.2828 19.6502H35.8925V20.0502ZM40.1825 18.4902L40.0923 18.8799L40.0934 18.8801L40.1825 18.4902ZM38.1725 18.0252L38.0812 18.4146L38.0823 18.4149L38.1725 18.0252ZM42.7325 15.4602V15.8602H43.1416L43.1324 15.4512L42.7325 15.4602ZM41.7425 15.4602L41.3432 15.4839L41.3656 15.8602H41.7425V15.4602ZM38.3225 17.0502L38.4099 16.6598L38.4068 16.6591L38.3225 17.0502ZM40.4675 17.5302L40.5549 17.1398L40.5549 17.1398L40.4675 17.5302ZM34.8875 20.0502V19.6502H34.4907L34.4875 20.0469L34.8875 20.0502ZM35.8925 20.0502L35.4926 20.06C35.5176 21.0758 35.8942 21.8661 36.5616 22.3929C37.2161 22.9096 38.1027 23.1352 39.0875 23.1352V22.7352V22.3352C38.2123 22.3352 37.5239 22.1333 37.0572 21.7649C36.6033 21.4067 36.3124 20.8545 36.2924 20.0403L35.8925 20.0502ZM39.0875 22.7352V23.1352C40.0285 23.1352 40.861 22.9166 41.4688 22.4608C42.09 21.9949 42.4425 21.3048 42.4425 20.4552H42.0425H41.6425C41.6425 21.0606 41.4025 21.5105 40.9887 21.8208C40.5615 22.1412 39.9165 22.3352 39.0875 22.3352V22.7352ZM42.0425 20.4552H42.4425C42.4425 19.5426 42.0371 18.9639 41.5407 18.612C41.0686 18.2773 40.5296 18.1592 40.2716 18.1002L40.1825 18.4902L40.0934 18.8801C40.3604 18.9411 40.7514 19.033 41.078 19.2646C41.3804 19.4789 41.6425 19.8227 41.6425 20.4552H42.0425ZM40.1825 18.4902L40.2727 18.1004L38.2627 17.6354L38.1725 18.0252L38.0823 18.4149L40.0923 18.8799L40.1825 18.4902ZM38.1725 18.0252L38.2638 17.6357C37.7737 17.5209 37.1003 17.3645 36.5456 17.0036C36.0165 16.6593 35.6025 16.135 35.6025 15.2352H35.2025H34.8025C34.8025 16.4503 35.3935 17.2085 36.1094 17.6742C36.7997 18.1233 37.6113 18.3045 38.0812 18.4146L38.1725 18.0252ZM35.2025 15.2352H35.6025C35.6025 14.442 35.9217 13.8326 36.47 13.411C37.0298 12.9807 37.858 12.7252 38.8925 12.7252V12.3252V11.9252C37.737 11.9252 36.7202 12.2096 35.9825 12.7768C35.2333 13.3527 34.8025 14.1983 34.8025 15.2352H35.2025ZM38.8925 12.3252V12.7252C39.9635 12.7252 40.8155 12.9915 41.3964 13.4523C41.9671 13.905 42.3125 14.5734 42.3326 15.4691L42.7325 15.4602L43.1324 15.4512C43.1075 14.337 42.6654 13.4378 41.8936 12.8255C41.132 12.2214 40.0865 11.9252 38.8925 11.9252V12.3252ZM42.7325 15.4602V15.0602H41.7425V15.4602V15.8602H42.7325V15.4602ZM41.7425 15.4602L42.1418 15.4364C42.0911 14.5833 41.7597 13.8933 41.1704 13.4241C40.5904 12.9624 39.8058 12.7502 38.9075 12.7502V13.1502V13.5502C39.6892 13.5502 40.2771 13.7355 40.6721 14.05C41.0578 14.357 41.3039 14.8221 41.3432 15.4839L41.7425 15.4602ZM38.9075 13.1502V12.7502C38.0014 12.7502 37.2353 12.9662 36.6859 13.3878C36.1257 13.8176 35.8225 14.4385 35.8225 15.1602H36.2225H36.6225C36.6225 14.6818 36.8143 14.2977 37.1729 14.0225C37.5422 13.7391 38.1186 13.5502 38.9075 13.5502V13.1502ZM36.2225 15.1602H35.8225C35.8225 16.0103 36.2471 16.5575 36.7675 16.8961C37.2647 17.2196 37.8556 17.3587 38.2382 17.4412L38.3225 17.0502L38.4068 16.6591C38.0244 16.5767 37.5653 16.4607 37.2038 16.2255C36.8654 16.0053 36.6225 15.69 36.6225 15.1602H36.2225ZM38.3225 17.0502L38.2351 17.4405L40.3802 17.9205L40.4675 17.5302L40.5549 17.1398L38.4099 16.6598L38.3225 17.0502ZM40.4675 17.5302L40.3801 17.9205C41.2597 18.1175 41.8251 18.4551 42.1715 18.8606C42.5153 19.2629 42.6775 19.7717 42.6775 20.3802H43.0775H43.4775C43.4775 19.6236 43.2722 18.9174 42.7797 18.3409C42.2899 17.7677 41.5503 17.3628 40.5549 17.1398L40.4675 17.5302ZM43.0775 20.3802H42.6775C42.6775 21.2805 42.323 21.9557 41.7176 22.417C41.0992 22.8881 40.1851 23.1602 39.0425 23.1602V23.5602V23.9602C40.2999 23.9602 41.4033 23.6622 42.2024 23.0533C43.0145 22.4346 43.4775 21.5198 43.4775 20.3802H43.0775ZM39.0425 23.5602V23.1602C37.6708 23.1602 36.7364 22.7706 36.1493 22.2127C35.5626 21.6552 35.2807 20.89 35.2875 20.0534L34.8875 20.0502L34.4875 20.0469C34.4793 21.0703 34.8274 22.0601 35.5982 22.7926C36.3686 23.5247 37.5192 23.9602 39.0425 23.9602V23.5602ZM34.8875 20.0502V20.4502H35.8925V20.0502V19.6502H34.8875V20.0502ZM51.8067 12.4752V12.0752H51.4067V12.4752H51.8067ZM52.7817 12.4752H53.1817V12.0752H52.7817V12.4752ZM52.7817 15.8352L53.087 16.0936L53.1817 15.9817V15.8352H52.7817ZM49.2267 20.0352L48.9214 19.7767L48.8267 19.8886V20.0352H49.2267ZM49.2267 23.4102V23.8102H49.6267V23.4102H49.2267ZM48.2517 23.4102H47.8517V23.8102H48.2517V23.4102ZM48.2517 20.0352H48.6517V19.8886L48.557 19.7767L48.2517 20.0352ZM44.6967 15.8352H44.2967V15.9817L44.3914 16.0936L44.6967 15.8352ZM44.6967 12.4752V12.0752H44.2967V12.4752H44.6967ZM45.6717 12.4752H46.0717V12.0752H45.6717V12.4752ZM45.6717 15.5652H45.2717V15.71L45.3644 15.8212L45.6717 15.5652ZM48.6717 19.1652L48.3644 19.4212L48.4843 19.5652H48.6717V19.1652ZM48.8067 19.1652V19.5652H48.994L49.114 19.4212L48.8067 19.1652ZM51.8067 15.5652L52.114 15.8212L52.2067 15.71V15.5652H51.8067ZM51.8067 12.4752V12.8752H52.7817V12.4752V12.0752H51.8067V12.4752ZM52.7817 12.4752H52.3817V15.8352H52.7817H53.1817V12.4752H52.7817ZM52.7817 15.8352L52.4764 15.5767L48.9214 19.7767L49.2267 20.0352L49.532 20.2936L53.087 16.0936L52.7817 15.8352ZM49.2267 20.0352H48.8267V23.4102H49.2267H49.6267V20.0352H49.2267ZM49.2267 23.4102V23.0102H48.2517V23.4102V23.8102H49.2267V23.4102ZM48.2517 23.4102H48.6517V20.0352H48.2517H47.8517V23.4102H48.2517ZM48.2517 20.0352L48.557 19.7767L45.002 15.5767L44.6967 15.8352L44.3914 16.0936L47.9464 20.2936L48.2517 20.0352ZM44.6967 15.8352H45.0967V12.4752H44.6967H44.2967V15.8352H44.6967ZM44.6967 12.4752V12.8752H45.6717V12.4752V12.0752H44.6967V12.4752ZM45.6717 12.4752H45.2717V15.5652H45.6717H46.0717V12.4752H45.6717ZM45.6717 15.5652L45.3644 15.8212L48.3644 19.4212L48.6717 19.1652L48.979 18.9091L45.979 15.3091L45.6717 15.5652ZM48.6717 19.1652V19.5652H48.8067V19.1652V18.7652H48.6717V19.1652ZM48.8067 19.1652L49.114 19.4212L52.114 15.8212L51.8067 15.5652L51.4994 15.3091L48.4994 18.9091L48.8067 19.1652ZM51.8067 15.5652H52.2067V12.4752H51.8067H51.4067V15.5652H51.8067ZM55.0273 23.4102H54.6273V23.8102H55.0273V23.4102ZM55.0273 12.4752V12.0752H54.6273V12.4752H55.0273ZM56.3173 12.4752L56.6538 12.2589L56.5357 12.0752H56.3173V12.4752ZM62.6323 22.3002L62.2959 22.5164L62.4139 22.7002H62.6323V22.3002ZM62.6923 22.3002V22.7002H63.1032L63.0922 22.2895L62.6923 22.3002ZM62.6023 18.9252H62.2022L62.2025 18.9358L62.6023 18.9252ZM62.6023 12.4752V12.0752H62.2023V12.4752H62.6023ZM63.5773 12.4752H63.9773V12.0752H63.5773V12.4752ZM63.5773 23.4102V23.8102H63.9773V23.4102H63.5773ZM62.2723 23.4102L61.9351 23.6252L62.053 23.8102H62.2723V23.4102ZM55.9873 13.5552L56.3246 13.3401L56.2067 13.1552H55.9873V13.5552ZM55.9273 13.5552V13.1552H55.518L55.5275 13.5644L55.9273 13.5552ZM56.0023 16.8102H56.4025L56.4022 16.8009L56.0023 16.8102ZM56.0023 23.4102V23.8102H56.4023V23.4102H56.0023ZM55.0273 23.4102H55.4273V12.4752H55.0273H54.6273V23.4102H55.0273ZM55.0273 12.4752V12.8752H56.3173V12.4752V12.0752H55.0273V12.4752ZM56.3173 12.4752L55.9809 12.6914L62.2959 22.5164L62.6323 22.3002L62.9688 22.0839L56.6538 12.2589L56.3173 12.4752ZM62.6323 22.3002V22.7002H62.6923V22.3002V21.9002H62.6323V22.3002ZM62.6923 22.3002L63.0922 22.2895L63.0022 18.9145L62.6023 18.9252L62.2025 18.9358L62.2925 22.3108L62.6923 22.3002ZM62.6023 18.9252H63.0023V12.4752H62.6023H62.2023V18.9252H62.6023ZM62.6023 12.4752V12.8752H63.5773V12.4752V12.0752H62.6023V12.4752ZM63.5773 12.4752H63.1773V23.4102H63.5773H63.9773V12.4752H63.5773ZM63.5773 23.4102V23.0102H62.2723V23.4102V23.8102H63.5773V23.4102ZM62.2723 23.4102L62.6096 23.1951L56.3246 13.3401L55.9873 13.5552L55.6501 13.7702L61.9351 23.6252L62.2723 23.4102ZM55.9873 13.5552V13.1552H55.9273V13.5552V13.9552H55.9873V13.5552ZM55.9273 13.5552L55.5275 13.5644L55.6025 16.8194L56.0023 16.8102L56.4022 16.8009L56.3272 13.5459L55.9273 13.5552ZM56.0023 16.8102H55.6023V23.4102H56.0023H56.4023V16.8102H56.0023ZM56.0023 23.4102V23.0102H55.0273V23.4102V23.8102H56.0023V23.4102ZM66.4279 23.4102H66.0279V23.8102H66.4279V23.4102ZM66.4279 12.4752V12.0752H66.0279V12.4752H66.4279ZM67.4029 12.4752H67.8029V12.0752H67.4029V12.4752ZM67.4029 17.3502H67.0029V17.7502H67.4029V17.3502ZM74.1529 17.3502V17.7502H74.5529V17.3502H74.1529ZM74.1529 12.4752V12.0752H73.7529V12.4752H74.1529ZM75.1279 12.4752H75.5279V12.0752H75.1279V12.4752ZM75.1279 23.4102V23.8102H75.5279V23.4102H75.1279ZM74.1529 23.4102H73.7529V23.8102H74.1529V23.4102ZM74.1529 18.2502H74.5529V17.8502H74.1529V18.2502ZM67.4029 18.2502V17.8502H67.0029V18.2502H67.4029ZM67.4029 23.4102V23.8102H67.8029V23.4102H67.4029ZM66.4279 23.4102H66.8279V12.4752H66.4279H66.0279V23.4102H66.4279ZM66.4279 12.4752V12.8752H67.4029V12.4752V12.0752H66.4279V12.4752ZM67.4029 12.4752H67.0029V17.3502H67.4029H67.8029V12.4752H67.4029ZM67.4029 17.3502V17.7502H74.1529V17.3502V16.9502H67.4029V17.3502ZM74.1529 17.3502H74.5529V12.4752H74.1529H73.7529V17.3502H74.1529ZM74.1529 12.4752V12.8752H75.1279V12.4752V12.0752H74.1529V12.4752ZM75.1279 12.4752H74.7279V23.4102H75.1279H75.5279V12.4752H75.1279ZM75.1279 23.4102V23.0102H74.1529V23.4102V23.8102H75.1279V23.4102ZM74.1529 23.4102H74.5529V18.2502H74.1529H73.7529V23.4102H74.1529ZM74.1529 18.2502V17.8502H67.4029V18.2502V18.6502H74.1529V18.2502ZM67.4029 18.2502H67.0029V23.4102H67.4029H67.8029V18.2502H67.4029ZM67.4029 23.4102V23.0102H66.4279V23.4102V23.8102H67.4029V23.4102ZM82.46 12.4752L82.7668 12.2185L82.6469 12.0752H82.46V12.4752ZM85.985 16.6902H86.385V16.5449L86.2918 16.4335L85.985 16.6902ZM85.985 23.4102V23.8102H86.385V23.4102H85.985ZM85.01 23.4102H84.61V23.8102H85.01V23.4102ZM85.01 20.6802H85.41V20.2802H85.01V20.6802ZM78.86 20.6802V20.2802H78.46V20.6802H78.86ZM78.86 23.4102V23.8102H79.26V23.4102H78.86ZM77.885 23.4102H77.485V23.8102H77.885V23.4102ZM77.885 16.6902L77.5782 16.4335L77.485 16.5449V16.6902H77.885ZM81.41 12.4752V12.0752H81.2231L81.1032 12.2185L81.41 12.4752ZM78.86 19.7652H78.46V20.1652H78.86V19.7652ZM85.01 19.7652V20.1652H85.41V19.7652H85.01ZM85.01 16.9602H85.41V16.8166L85.3187 16.7058L85.01 16.9602ZM81.995 13.3002L82.3037 13.0458L82.1837 12.9002H81.995V13.3002ZM81.875 13.3002V12.9002H81.6863L81.5663 13.0458L81.875 13.3002ZM78.86 16.9602L78.5513 16.7058L78.46 16.8166V16.9602H78.86ZM82.46 12.4752L82.1532 12.7318L85.6782 16.9468L85.985 16.6902L86.2918 16.4335L82.7668 12.2185L82.46 12.4752ZM85.985 16.6902H85.585V23.4102H85.985H86.385V16.6902H85.985ZM85.985 23.4102V23.0102H85.01V23.4102V23.8102H85.985V23.4102ZM85.01 23.4102H85.41V20.6802H85.01H84.61V23.4102H85.01ZM85.01 20.6802V20.2802H78.86V20.6802V21.0802H85.01V20.6802ZM78.86 20.6802H78.46V23.4102H78.86H79.26V20.6802H78.86ZM78.86 23.4102V23.0102H77.885V23.4102V23.8102H78.86V23.4102ZM77.885 23.4102H78.285V16.6902H77.885H77.485V23.4102H77.885ZM77.885 16.6902L78.1918 16.9468L81.7168 12.7318L81.41 12.4752L81.1032 12.2185L77.5782 16.4335L77.885 16.6902ZM81.41 12.4752V12.8752H82.46V12.4752V12.0752H81.41V12.4752ZM78.86 19.7652V20.1652H85.01V19.7652V19.3652H78.86V19.7652ZM85.01 19.7652H85.41V16.9602H85.01H84.61V19.7652H85.01ZM85.01 16.9602L85.3187 16.7058L82.3037 13.0458L81.995 13.3002L81.6863 13.5545L84.7013 17.2145L85.01 16.9602ZM81.995 13.3002V12.9002H81.875V13.3002V13.7002H81.995V13.3002ZM81.875 13.3002L81.5663 13.0458L78.5513 16.7058L78.86 16.9602L79.1687 17.2145L82.1837 13.5545L81.875 13.3002ZM78.86 16.9602H78.46V19.7652H78.86H79.26V16.9602H78.86ZM88.7457 19.3602H88.3457V19.462L88.3944 19.5514L88.7457 19.3602ZM88.7457 12.4752V12.0752H88.3457V12.4752H88.7457ZM89.7207 12.4752H90.1207V12.0752H89.7207V12.4752ZM89.7207 19.2252H89.3207V19.3252L89.3678 19.4134L89.7207 19.2252ZM91.5207 22.6002L91.1678 22.7884L91.2807 23.0002H91.5207V22.6002ZM91.6707 22.6002V23.0002H91.9039L92.0188 22.7972L91.6707 22.6002ZM93.6657 19.0752L94.0138 19.2722L94.0657 19.1805V19.0752H93.6657ZM93.6657 15.7302V15.3302H93.2657V15.7302H93.6657ZM94.5807 15.7302H94.9807V15.3302H94.5807V15.7302ZM94.5807 19.0752H94.1807V19.1866L94.2383 19.282L94.5807 19.0752ZM96.7107 22.6002L96.3684 22.807L96.4851 23.0002H96.7107V22.6002ZM96.8607 22.6002V23.0002H97.0988L97.2123 22.7908L96.8607 22.6002ZM98.6907 19.2252L99.0423 19.4158L99.0907 19.3266V19.2252H98.6907ZM98.6907 12.4752V12.0752H98.2907V12.4752H98.6907ZM99.6657 12.4752H100.066V12.0752H99.6657V12.4752ZM99.6657 19.3602L100.016 19.5534L100.066 19.4632V19.3602H99.6657ZM97.4307 23.4102V23.8102H97.6668L97.7809 23.6034L97.4307 23.4102ZM96.2157 23.4102L95.8742 23.6184L95.9911 23.8102H96.2157V23.4102ZM94.1307 19.9902L94.4722 19.7819L94.1205 19.205L93.7839 19.7909L94.1307 19.9902ZM92.1657 23.4102V23.8102H92.3972L92.5125 23.6094L92.1657 23.4102ZM90.9507 23.4102L90.5994 23.6014L90.713 23.8102H90.9507V23.4102ZM88.7457 19.3602H89.1457V12.4752H88.7457H88.3457V19.3602H88.7457ZM88.7457 12.4752V12.8752H89.7207V12.4752V12.0752H88.7457V12.4752ZM89.7207 12.4752H89.3207V19.2252H89.7207H90.1207V12.4752H89.7207ZM89.7207 19.2252L89.3678 19.4134L91.1678 22.7884L91.5207 22.6002L91.8736 22.4119L90.0736 19.0369L89.7207 19.2252ZM91.5207 22.6002V23.0002H91.6707V22.6002V22.2002H91.5207V22.6002ZM91.6707 22.6002L92.0188 22.7972L94.0138 19.2722L93.6657 19.0752L93.3176 18.8781L91.3226 22.4031L91.6707 22.6002ZM93.6657 19.0752H94.0657V15.7302H93.6657H93.2657V19.0752H93.6657ZM93.6657 15.7302V16.1302H94.5807V15.7302V15.3302H93.6657V15.7302ZM94.5807 15.7302H94.1807V19.0752H94.5807H94.9807V15.7302H94.5807ZM94.5807 19.0752L94.2383 19.282L96.3684 22.807L96.7107 22.6002L97.0531 22.3933L94.9231 18.8683L94.5807 19.0752ZM96.7107 22.6002V23.0002H96.8607V22.6002V22.2002H96.7107V22.6002ZM96.8607 22.6002L97.2123 22.7908L99.0423 19.4158L98.6907 19.2252L98.3391 19.0345L96.5091 22.4095L96.8607 22.6002ZM98.6907 19.2252H99.0907V12.4752H98.6907H98.2907V19.2252H98.6907ZM98.6907 12.4752V12.8752H99.6657V12.4752V12.0752H98.6907V12.4752ZM99.6657 12.4752H99.2657V19.3602H99.6657H100.066V12.4752H99.6657ZM99.6657 19.3602L99.3155 19.1669L97.0805 23.2169L97.4307 23.4102L97.7809 23.6034L100.016 19.5534L99.6657 19.3602ZM97.4307 23.4102V23.0102H96.2157V23.4102V23.8102H97.4307V23.4102ZM96.2157 23.4102L96.5572 23.2019L94.4722 19.7819L94.1307 19.9902L93.7892 20.1984L95.8742 23.6184L96.2157 23.4102ZM94.1307 19.9902L93.7839 19.7909L91.8189 23.2109L92.1657 23.4102L92.5125 23.6094L94.4775 20.1894L94.1307 19.9902ZM92.1657 23.4102V23.0102H90.9507V23.4102V23.8102H92.1657V23.4102ZM90.9507 23.4102L91.302 23.2189L89.097 19.1689L88.7457 19.3602L88.3944 19.5514L90.5994 23.6014L90.9507 23.4102ZM109.303 23.4102L108.971 23.6333L109.09 23.8102H109.303V23.4102ZM105.673 18.0102L106.005 17.787L105.707 17.3442L105.366 17.7541L105.673 18.0102ZM103.348 20.8002L103.041 20.5441L102.948 20.6553V20.8002H103.348ZM103.348 23.4102V23.8102H103.748V23.4102H103.348ZM102.373 23.4102H101.973V23.8102H102.373V23.4102ZM102.373 12.4752V12.0752H101.973V12.4752H102.373ZM103.348 12.4752H103.748V12.0752H103.348V12.4752ZM103.348 19.4952H102.948V20.6044L103.656 19.7505L103.348 19.4952ZM109.168 12.4752V12.0752H108.98L108.86 12.2199L109.168 12.4752ZM110.293 12.4752L110.6 12.7318L111.149 12.0752H110.293V12.4752ZM106.303 17.2452L105.996 16.9885L105.803 17.2189L105.971 17.4682L106.303 17.2452ZM110.443 23.4102V23.8102H111.193L110.775 23.1872L110.443 23.4102ZM109.303 23.4102L109.635 23.187L106.005 17.787L105.673 18.0102L105.341 18.2333L108.971 23.6333L109.303 23.4102ZM105.673 18.0102L105.366 17.7541L103.041 20.5441L103.348 20.8002L103.655 21.0562L105.98 18.2662L105.673 18.0102ZM103.348 20.8002H102.948V23.4102H103.348H103.748V20.8002H103.348ZM103.348 23.4102V23.0102H102.373V23.4102V23.8102H103.348V23.4102ZM102.373 23.4102H102.773V12.4752H102.373H101.973V23.4102H102.373ZM102.373 12.4752V12.8752H103.348V12.4752V12.0752H102.373V12.4752ZM103.348 12.4752H102.948V19.4952H103.348H103.748V12.4752H103.348ZM103.348 19.4952L103.656 19.7505L109.476 12.7305L109.168 12.4752L108.86 12.2199L103.04 19.2399L103.348 19.4952ZM109.168 12.4752V12.8752H110.293V12.4752V12.0752H109.168V12.4752ZM110.293 12.4752L109.986 12.2185L105.996 16.9885L106.303 17.2452L106.61 17.5018L110.6 12.7318L110.293 12.4752ZM106.303 17.2452L105.971 17.4682L110.111 23.6332L110.443 23.4102L110.775 23.1872L106.635 17.0222L106.303 17.2452ZM110.443 23.4102V23.0102H109.303V23.4102V23.8102H110.443V23.4102Z" fill="white" mask="url(#path-8-outside-1_2387_36)"/>
<defs>
<clipPath id="clip0_2387_36">
<rect width="25.636" height="30.1094" fill="white" transform="translate(4.26367 2.89062)"/>
</clipPath>
</defs>
</svg>
