<svg width="2701" height="485" viewBox="0 0 2701 485" fill="none" xmlns="http://www.w3.org/2000/svg">
<g clip-path="url(#clip0_2_182)">
<path d="M136.385 309.858C107.342 309.858 79.9087 309.864 52.4759 309.856C32.4686 309.85 17.0488 301.47 7.27053 283.999C-11.0929 251.188 11.0158 211.203 48.6529 208.967C57.7757 208.425 66.9442 208.545 76.0918 208.542C153.21 208.513 230.329 208.525 307.448 208.525H318.538C316.533 204.516 315.033 201.435 313.463 198.39C292.569 157.882 271.552 117.438 250.807 76.8548C238.775 53.315 242.24 30.4917 259.838 13.8378C283.794 -8.83338 322.633 -2.96611 338.867 26.4504C353.087 52.2176 366.351 78.5142 379.871 104.663C431.074 203.693 482.193 302.768 533.392 401.801C539.937 414.459 545.643 427.211 542.824 442.042C538.661 463.943 522.088 480.278 500.46 483.681C478.909 487.072 458.623 477.471 447.991 457.506C428.278 420.489 409.163 383.155 389.811 345.946C384.524 335.779 379.573 325.42 373.819 315.525C372.376 313.043 368.44 310.561 365.626 310.535C329.815 310.2 293.998 310.434 258.186 310.179C253.072 310.142 250.906 312.359 248.762 316.372C226.176 358.655 203.461 400.87 180.732 443.077C177.768 448.58 174.759 454.084 171.373 459.332C158.373 479.486 135.008 487.885 112.633 480.641C90.9866 473.633 76.2628 452.778 77.8724 429.562C78.3772 422.281 81.0018 414.695 84.3896 408.142C100.42 377.133 117.052 346.434 133.464 315.622C134.171 314.296 134.825 312.942 136.385 309.858ZM170.13 289.955C167.659 294.641 166.138 297.539 164.603 300.43C143.353 340.457 121.796 380.326 100.989 420.581C91.8483 438.267 103.777 459.469 123.484 462.503C138.43 464.804 148.792 459.222 157.473 443.201C183.783 394.648 209.959 346.024 235.926 297.288C238.762 291.965 241.88 290.025 247.991 290.077C285.364 290.392 322.741 290.275 360.116 290.214C374.489 290.191 388.882 290.364 403.23 289.686C423.5 288.73 436.844 270.705 431.927 251.725C428.006 236.591 416.779 228.783 398.005 228.772C284.315 228.706 170.624 228.737 56.9339 228.752C54.323 228.752 51.7013 228.818 49.103 229.054C32.6243 230.551 20.7387 243.663 20.9802 260.007C21.2145 275.86 33.2676 288.498 49.5554 289.682C55.0191 290.08 60.5263 289.942 66.0137 289.945C99.9743 289.965 133.935 289.955 170.13 289.955ZM410.041 208.517C409.571 207.094 409.338 205.849 408.779 204.773C379.577 148.613 350.521 92.3776 321.011 36.3796C312.766 20.7331 294.991 15.8804 280.087 23.941C265.105 32.0438 259.569 49.1128 267.635 64.9491C291.276 111.365 315.215 157.63 339.231 203.854C340.3 205.913 343.256 208.284 345.367 208.316C366.761 208.645 388.162 208.517 410.041 208.517ZM448.289 280.949C436.577 303.275 417.968 310.956 395.628 310.015C395.289 311.538 395.104 311.855 395.195 312.03C419.234 358.219 443.057 404.522 467.495 450.5C474.531 463.738 491.955 467.791 505.976 461.001C519.938 454.239 526.859 438.339 521.449 424.232C518.757 417.211 515.201 410.498 511.748 403.793C490.886 363.294 469.94 322.838 448.289 280.949Z" fill="white"/>
<path d="M1409.81 359.032C1422.65 363.119 1434.75 367.467 1447.13 370.684C1452.65 372.116 1458.8 371.836 1464.59 371.36C1491.27 369.166 1504.49 350.783 1500.02 321.489C1484.66 335.999 1466.42 340.115 1446.37 337.496C1428.99 335.225 1414.5 327.435 1403.28 313.919C1380.85 286.896 1382.88 242.941 1406.97 216.499C1426.39 195.188 1468.64 185.786 1500.14 213.658C1500.41 208.695 1500.64 204.366 1500.89 199.721H1532.69C1532.83 201.214 1533.04 202.414 1533.04 203.614C1533.02 246.298 1533.05 288.982 1532.83 331.664C1532.8 337.711 1532.04 343.863 1530.73 349.774C1524.28 379.076 1506.79 395.221 1476.51 399.501C1452.78 402.854 1429.92 399.592 1408.11 389.302C1403.63 387.185 1402.12 384.917 1403.88 379.926C1406.38 372.839 1408.03 365.456 1409.81 359.032ZM1421.25 266.952C1421.16 290.871 1437.4 307.402 1461.15 307.574C1484.76 307.746 1501.93 290.505 1501.9 266.676C1501.87 243.828 1484.8 226.92 1461.71 226.869C1437.88 226.817 1421.34 243.208 1421.25 266.952Z" fill="white"/>
<path d="M1137.44 340.865H1106.98V324.61C1105.47 325.365 1104.55 325.572 1104 326.141C1084.71 346.222 1061.05 348.334 1036.39 340.385C1011.27 332.286 996.975 313.504 992.26 287.726C989.031 270.078 990.604 252.779 998.36 236.394C1018.95 192.905 1075.19 186.031 1105.12 215.834V126.734H1137.44V340.865ZM1024.29 271.51C1024.2 297.084 1041.13 315.217 1065.08 315.2C1089.1 315.183 1106.64 297.006 1106.71 272.058C1106.78 245.955 1089.28 226.849 1065.31 226.871C1041.51 226.892 1024.39 245.526 1024.29 271.51Z" fill="white"/>
<path d="M937.573 216.123V199.856H970.106V340.599H939.127V323.307C920.531 344.454 898.463 347.59 874.649 342.014C845.549 335.2 826.194 309.64 824.433 276.984C823.657 262.579 825.776 248.616 832.172 235.542C853.22 192.509 908.8 186.54 937.573 216.123ZM938.899 271.478C938.799 247.32 923.136 228.525 901.792 226.952C879.447 225.306 861.986 240.071 858.255 263.767C854.562 287.222 866.757 308.464 886.926 313.708C914.95 320.995 939.023 301.435 938.899 271.478Z" fill="white"/>
<path d="M1745.89 215.631V199.349H1778.52V340.24H1747.76V322.63C1738.15 333.177 1728.58 339.739 1716.55 342.195C1672.21 351.246 1634.95 321.812 1632.89 275.834C1632.02 256.251 1636.47 238.221 1648.69 222.284C1671.39 192.661 1719.27 188.126 1745.89 215.631ZM1747.37 270.894C1747.27 246.737 1731.6 227.944 1710.26 226.375C1687.91 224.734 1670.45 239.502 1666.73 263.198C1663.04 286.656 1675.23 307.891 1695.4 313.133C1723.43 320.415 1747.5 300.853 1747.37 270.894Z" fill="white"/>
<path d="M2106.83 340.314H2076.12V324.608C2074.77 324.954 2073.92 324.907 2073.56 325.304C2054.76 345.696 2031.33 347.682 2006.92 339.966C1981.72 332.003 1967.19 313.224 1962.74 287.442C1958.15 260.851 1963.03 236.484 1982.53 216.286C2007.16 190.762 2052.16 191.737 2071.49 213.207C2071.94 213.701 2072.68 213.932 2074.06 214.745V199.456H2106.83V340.314ZM2075.81 271.373C2075.83 236.898 2044.58 215.689 2016.29 230.965C1989.11 245.635 1986.69 290.747 2012.42 307.845C2025.47 316.516 2039.72 317.359 2053.68 310.132C2069.18 302.101 2075.75 288.454 2075.81 271.373Z" fill="white"/>
<path d="M2596.46 281.333H2492.08C2495.6 296.433 2503.27 306.93 2517.39 312.075C2534.95 318.474 2551.65 313.832 2568.39 297.742C2575.68 304.135 2583.02 310.574 2590.79 317.387C2578.34 333.331 2561.9 340.449 2542.86 343.112C2502.25 348.789 2467.71 326.051 2459.79 287.789C2456.27 270.779 2457.29 253.869 2464.2 237.725C2477.3 207.083 2508.63 192.003 2544.43 198.839C2573.71 204.43 2595.27 230.574 2596.43 262.066C2596.65 268.095 2596.46 274.14 2596.46 281.333ZM2493.43 254.829H2562.6C2560.53 238.134 2547.22 226.582 2530.11 226.296C2511.21 225.98 2496.33 237.545 2493.43 254.829Z" fill="white"/>
<path d="M1269.1 340.921H1237.11V199.901H1269.05V218.071C1271.57 216.127 1273.09 215.093 1274.45 213.881C1292.34 197.931 1313.15 194.205 1335.64 200.548C1358.94 207.117 1367.98 225.484 1368.82 247.418C1370.01 278.315 1369.12 309.292 1369.12 340.733H1336.91C1336.91 337.842 1336.93 334.925 1336.91 332.009C1336.74 307.631 1337.35 283.215 1336.17 258.886C1335.1 236.782 1325.61 227.327 1307.3 226.872C1287.37 226.376 1272.36 238.587 1270.36 258.73C1268.88 273.585 1269.33 288.642 1269.13 303.612C1268.96 315.784 1269.1 327.961 1269.1 340.921Z" fill="white"/>
<path d="M1808.76 199.038H1840.6V217.7C1843.2 215.683 1844.55 214.783 1845.73 213.705C1863.46 197.56 1884.26 193.687 1906.8 199.778C1929.37 205.876 1939.36 223.241 1940.25 244.752C1941.55 276.381 1940.58 308.103 1940.58 340.22H1908.62C1908.62 337.129 1908.64 334.19 1908.62 331.252C1908.44 306.875 1909.04 282.46 1907.86 258.131C1906.79 236.125 1897.21 226.686 1878.83 226.294C1859.22 225.876 1844.16 237.85 1842.16 257.578C1840.53 273.688 1841.08 290.024 1840.84 306.263C1840.67 317.398 1840.8 328.538 1840.8 340.161H1808.76V199.038Z" fill="white"/>
<path d="M2256.94 293.108C2265.08 272.455 2272.61 253.392 2280.11 234.319C2284.01 224.406 2288.04 214.538 2291.66 204.524C2293.15 200.423 2295 198.42 2299.8 198.658C2308.88 199.108 2318.01 198.788 2328.16 198.788C2325.3 206.184 2322.79 212.741 2320.24 219.281C2297.81 276.686 2275.27 334.047 2253.11 391.555C2250.87 397.365 2248.13 399.326 2242.1 398.941C2233.75 398.41 2225.35 398.808 2215.88 398.808C2217.26 394.889 2218.29 391.654 2219.53 388.499C2225.91 372.204 2232.63 356.032 2238.56 339.574C2239.92 335.77 2239.93 330.471 2238.38 326.78C2221.43 286.579 2204.03 246.563 2186.78 206.489C2185.81 204.23 2184.97 201.909 2183.76 198.807C2194.7 198.807 2204.82 198.485 2214.89 199.082C2216.88 199.199 2219.41 202.54 2220.41 204.929C2231.79 232.061 2242.92 259.298 2254.13 286.505C2254.8 288.137 2255.51 289.752 2256.94 293.108Z" fill="white"/>
<path d="M2338.48 226.517V199.206H2451.02C2451.83 211.27 2451.95 221.821 2442.78 232.239C2421.64 256.237 2402.17 281.703 2382.04 306.585C2380.66 308.294 2379.4 310.103 2377.35 312.841H2449.45V340.154H2333.77C2332.5 327.419 2332.85 316.369 2342.29 305.598C2362.69 282.312 2381.47 257.6 2400.9 233.459C2402.44 231.544 2403.88 229.541 2406.16 226.517H2338.48Z" fill="white"/>
<path d="M680.554 199.338H721.819V226.489H680.605C680.605 230.162 680.605 233.086 680.605 236.01C680.606 254.812 680.542 273.614 680.626 292.416C680.715 312.569 688.655 317.987 707.607 310.954C709.983 310.072 712.307 309.049 715.371 307.8C718.182 317.047 720.947 326.142 723.899 335.854C706.897 343.848 689.781 347.67 672.004 341.409C655.434 335.572 649.216 321.561 648.592 305.431C647.708 282.596 648.142 259.71 648.019 236.846C648.002 233.847 648.016 230.849 648.016 226.931H630.695V199.524H647.811V152.281C658.805 151.057 669.241 149.895 680.554 148.636V199.338Z" fill="white"/>
<path d="M2169.34 340.303H2137.39V126H2169.34V340.303Z" fill="white"/>
<path d="M740.612 199.626H772.448V219.346C780.368 213.426 786.946 206.855 794.861 203.064C802.528 199.393 811.569 198.581 820.905 196.293V234.5C817.396 234.5 814.177 234.483 810.959 234.502C790.583 234.623 775.516 247.021 773.663 267.275C772.187 283.406 772.874 299.738 772.68 315.981C772.583 324.07 772.663 332.161 772.663 340.739H740.612V199.626Z" fill="white"/>
<path d="M2651.68 199.385V218.271C2652.09 218.74 2652.5 219.208 2652.91 219.677C2665.09 204.741 2680.01 196.054 2700.01 197.447V233.924C2696.68 233.924 2693.24 233.89 2689.81 233.929C2669.84 234.157 2654.74 246.526 2652.96 266.325C2651.45 283.217 2652.14 300.309 2651.92 317.314C2651.82 324.67 2651.9 332.028 2651.9 340.019H2619.72V199.385H2651.68Z" fill="white"/>
<path d="M1202.27 199.754V340.688H1170.05V199.754H1202.27Z" fill="white"/>
<path d="M1164.37 154.791C1164.5 142.806 1174.41 133.504 1186.75 133.8C1198.58 134.083 1208.29 143.699 1208.27 155.097C1208.24 166.914 1198.29 176.494 1186.06 176.483C1173.77 176.472 1164.24 166.944 1164.37 154.791Z" fill="white"/>
</g>
<defs>
<clipPath id="clip0_2_182">
<rect width="2700" height="485" fill="white" transform="translate(0.69458)"/>
</clipPath>
</defs>
</svg>
