<svg width="140" height="33" viewBox="0 0 140 33" fill="none" xmlns="http://www.w3.org/2000/svg">
<path d="M41.7584 26.2533H37.9258L45.4206 6.34031H49.7642L57.2022 26.2533H53.2561L51.496 21.4284H43.4901L41.7584 26.2533ZM47.493 9.79858L44.4838 18.3606H50.5307L47.493 9.79858Z" fill="white"/>
<path d="M58.3877 21.2332V14.5119H56.0598V11.7508H57.8529V9.60643H59.829V7.84633H61.9648V11.7508H65.627V14.5119H61.9648V21.5958C61.9648 22.2465 62.1162 22.7578 62.419 23.1297C62.7219 23.5015 63.1855 23.6875 63.8101 23.6875C64.1697 23.6875 64.4915 23.6596 64.7754 23.6038C65.0593 23.548 65.3242 23.4829 65.5703 23.4086L66.1097 26.0302C65.6365 26.1789 65.1444 26.2998 64.6334 26.3927C64.1413 26.4857 63.5735 26.5322 62.93 26.5322C61.7566 26.5322 60.8387 26.3276 60.1763 25.9186C59.5138 25.491 59.0501 24.8867 58.7852 24.1058C58.5202 23.3063 58.3877 22.3488 58.3877 21.2332Z" fill="white"/>
<path d="M66.5599 19.0299C66.5599 17.431 66.8627 16.0551 67.4684 14.9023C68.074 13.7496 68.9257 12.8664 70.0234 12.2528C71.1401 11.6207 72.4555 11.3046 73.9696 11.3046C76.2786 11.3046 78.0766 11.9832 79.3636 13.3405C80.6506 14.6792 81.294 16.5385 81.294 18.9184C81.294 21.3355 80.6316 23.2412 79.3068 24.6357C78.0009 26.0116 76.1934 26.6995 73.8844 26.6995C71.5565 26.6995 69.749 26.0302 68.462 24.6915C67.1939 23.3342 66.5599 21.447 66.5599 19.0299ZM70.2505 18.9742C70.2505 20.443 70.5344 21.6236 71.1022 22.5161C71.6889 23.4086 72.6258 23.8548 73.9128 23.8548C75.1998 23.8548 76.1366 23.4086 76.7233 22.5161C77.3101 21.6236 77.6034 20.443 77.6034 18.9742C77.6034 17.5053 77.3101 16.334 76.7233 15.4601C76.1366 14.5862 75.1998 14.1493 73.9128 14.1493C72.6447 14.1493 71.7173 14.5862 71.1306 15.4601C70.5439 16.334 70.2505 17.5053 70.2505 18.9742Z" fill="white"/>
<path d="M83.2068 11.7508H86.6987V13.731C87.3233 12.9129 88.0141 12.3086 88.7711 11.9182C89.5282 11.5091 90.3136 11.3046 91.1275 11.3046C92.1495 11.3046 93.0012 11.5277 93.6825 11.9739C94.3639 12.4016 94.8749 13.0151 95.2155 13.8146C96.4836 12.1413 98.0923 11.3046 100.042 11.3046C101.499 11.3046 102.625 11.7136 103.42 12.5317C104.215 13.3312 104.612 14.5862 104.612 16.2968V26.2533H101.035V16.9104C101.035 15.8877 100.856 15.1905 100.496 14.8187C100.136 14.4282 99.6159 14.233 98.9346 14.233C98.575 14.233 98.1964 14.2981 97.799 14.4282C97.4015 14.5584 97.023 14.7815 96.6634 15.0976C96.3795 15.3579 96.1429 15.6646 95.9537 16.0179C95.7833 16.3712 95.6982 16.7709 95.6982 17.2171V26.2533H92.1211V16.9382C92.1211 15.9528 91.9413 15.2556 91.5817 14.8465C91.2221 14.4375 90.7111 14.233 90.0487 14.233C89.2348 14.233 88.4778 14.5584 87.7775 15.2091C87.5315 15.4508 87.3043 15.7576 87.0961 16.1295C86.888 16.5013 86.7839 16.9847 86.7839 17.5797V26.2533H83.2068V11.7508Z" fill="white"/>
<path d="M106.913 11.7508H110.49V26.2533H106.913V11.7508ZM106.884 6.28453H110.49V9.43602H106.884V6.28453Z" fill="white"/>
<path d="M114.481 8.15386V6.34031H116.365V17.245L122.298 11.7508H126.443L121.22 16.6036L126.954 26.2533H123.065L118.721 18.6953L116.365 20.8149V26.2533H112.902V8.15386H114.481Z" fill="white"/>
<path d="M126.8 22.2372C126.8 21.289 126.998 20.4988 127.396 19.8666C127.812 19.2345 128.37 18.7418 129.071 18.3885C129.771 18.0166 130.566 17.7563 131.455 17.6076C132.364 17.4403 133.31 17.338 134.294 17.3008L136.565 17.2171V16.6872C136.565 15.6832 136.348 14.9581 135.913 14.5119C135.477 14.0471 134.777 13.8146 133.812 13.8146C132.865 13.8146 132.165 13.982 131.711 14.3166C131.257 14.6327 130.954 15.0883 130.802 15.6832L127.594 15.4043C127.859 13.9913 128.522 12.9594 129.582 12.3086C130.642 11.6393 132.089 11.3046 133.925 11.3046C136.121 11.3046 137.682 11.7973 138.61 12.7827C139.537 13.7496 140.001 15.1533 140.001 16.994V26.2533H136.679V24.4684C136.111 25.1005 135.439 25.6211 134.663 26.0302C133.887 26.4206 132.951 26.6158 131.853 26.6158C130.358 26.6158 129.137 26.244 128.191 25.5003C127.263 24.738 126.8 23.6503 126.8 22.2372ZM130.263 22.0699C130.263 22.6648 130.452 23.1483 130.831 23.5201C131.209 23.8734 131.824 24.05 132.676 24.05C133.85 24.05 134.786 23.7525 135.487 23.1576C136.206 22.5626 136.565 21.7259 136.565 20.6475V19.4204L134.465 19.5041C132.856 19.5598 131.749 19.8015 131.143 20.2292C130.556 20.6568 130.263 21.2704 130.263 22.0699Z" fill="white"/>
<path d="M1.80729 18.2991L0.000165072 16.492L10.6185 5.87368L12.4256 7.68081L1.80729 18.2991ZM4.7469 21.2388L2.93908 19.4309L13.5574 8.81259L15.3652 10.6204L4.7469 21.2388ZM21.6885 27.7878L16.9452 23.0445L22.7125 17.2772L21.5828 16.1474L10.6199 27.1104L8.81276 25.3032L14.0083 20.1077L14.0076 20.107L19.7757 14.3389L18.646 13.2092L12.8779 18.9773L12.8766 18.9759L7.68028 24.1721L5.87247 22.3643L16.4908 11.746L16.4922 11.7474L22.3659 5.87368L32.9842 16.492L21.6885 27.7878Z" fill="#4F39F6"/>
</svg>
